Coordinates
version=1
nRows=17
nColumns=40
inDegrees=yes

Units are S.I. units (second, meters, Newtons, ...)
Angles are in degrees.

endheader
time	pelvis_tilt	pelvis_list	pelvis_rotation	pelvis_tx	pelvis_ty	pelvis_tz	hip_flexion_r	hip_adduction_r	hip_rotation_r	knee_angle_r	knee_angle_r_beta	ankle_angle_r	subtalar_angle_r	mtp_angle_r	hip_flexion_l	hip_adduction_l	hip_rotation_l	knee_angle_l	knee_angle_l_beta	ankle_angle_l	subtalar_angle_l	mtp_angle_l	lumbar_extension	lumbar_bending	lumbar_rotation	arm_flex_r	arm_add_r	arm_rot_r	elbow_flex_r	pro_sup_r	wrist_flex_r	wrist_dev_r	arm_flex_l	arm_add_l	arm_rot_l	elbow_flex_l	pro_sup_l	wrist_flex_l	wrist_dev_l
     25.02000000	     -6.35046481	     -6.48413679	      0.61474632	      1.01491690	      0.92697238	      0.49325687	     13.75466795	      4.60563872	    -16.45696469	     15.00680887	     15.00680887	      9.61896896	     -0.04107528	     -3.22082893	     35.54840812	    -11.91275976	      6.54401098	     70.97364123	     70.97364123	      1.63817515	    -17.20988042	      6.41996968	    -11.49167592	      6.13793219	      4.83373743	     11.39501197	    -14.45054522	     -2.69504936	     39.36459889	     45.67022899	      0.00000000	      0.00000000	      5.95830089	     -6.36478340	     -2.55735885	     34.20899068	     45.47847684	      0.00000000	      0.00000000
     25.03114286	     -6.38904555	     -6.44496758	      0.76631229	      1.01433310	      0.92721515	      0.49405606	     13.00882042	      4.72120438	    -16.37271485	     14.52087681	     14.52087681	      9.93881227	     -0.02452217	     -3.24866772	     36.92114093	    -11.96355544	      6.17444304	     69.46127633	     69.46127633	      2.21452785	    -18.10690687	      6.87996648	    -11.49005666	      5.98947507	      4.61928389	     13.60465099	    -14.28783001	     -2.72791317	     40.70781947	     45.63524741	      0.00000000	      0.00000000	      4.55103611	     -6.51954961	     -2.41000336	     32.76289677	     45.44896153	      0.00000000	      0.00000000
     25.04228571	     -6.37899973	     -6.46308617	      0.92619320	      1.01385127	      0.92742253	      0.49485896	     12.18567070	      4.91028744	    -16.29584652	     13.97989904	     13.97989904	     10.21011780	     -0.04800929	     -3.26687174	     38.12864794	    -12.10942315	      5.74963823	     67.79977423	     67.79977423	      3.14104788	    -18.56718849	      8.01862662	    -11.52173852	      5.92223970	      4.41408188	     15.75587292	    -14.14412557	     -2.56600730	     42.21560974	     45.58385245	      0.00000000	      0.00000000	      3.32510270	     -6.63493120	     -2.23557242	     30.91381548	     45.42569897	      0.00000000	      0.00000000
     25.05342857	     -6.41666806	     -6.40876293	      1.06176595	      1.01327632	      0.92754399	      0.49545362	     11.45080637	      5.00623076	    -16.16529327	     13.47686758	     13.47686758	     10.44931241	     -0.10408543	     -3.44564668	     39.32431049	    -12.03746050	      5.37732041	     66.10953401	     66.10953401	      5.05362343	    -18.73153714	     12.16663741	    -11.52271800	      5.80295277	      4.70190404	     17.40181027	    -14.57691180	     -1.55628923	     44.25120521	     45.47394095	      0.00000000	      0.00000000	      2.87960341	     -6.51568541	     -2.01783974	     27.76363238	     45.46805280	      0.00000000	      0.00000000
     25.06457143	     -6.39909680	     -6.38437774	      1.22135400	      1.01285421	      0.92764696	      0.49598352	     10.63228253	      5.12899588	    -16.08182041	     12.94029005	     12.94029005	     10.73390054	     -0.06568516	     -3.41859493	     40.18649544	    -12.06232566	      4.90173051	     63.95753946	     63.95753946	      5.81340565	    -18.95139129	     12.95620385	    -11.59696264	      5.71368113	      4.55121619	     19.45436706	    -14.42859805	     -1.59680251	     45.72828204	     45.43491460	      0.00000000	      0.00000000	      1.55221031	     -6.65257531	     -1.97135980	     26.68593318	     45.45586710	      0.00000000	      0.00000000
     25.07571429	     -6.40701974	     -6.35554562	      1.39324261	      1.01244896	      0.92763065	      0.49631172	      9.84921123	      5.22952394	    -16.00698438	     12.41123628	     12.41123628	     11.01354949	     -0.03792708	     -3.40387289	     40.94459418	    -11.95997185	      4.53155432	     61.61014147	     61.61014147	      6.66791239	    -19.05851838	     14.07952413	    -11.65373894	      5.62750193	      4.43826805	     21.41319714	    -14.36507240	     -1.53509506	     47.32609014	     45.38647090	      0.00000000	      0.00000000	      0.32702650	     -6.75873297	     -1.90671952	     25.58457491	     45.44316867	      0.00000000	      0.00000000
     25.08685714	     -6.54724990	     -6.45309662	      1.56231476	      1.01198272	      0.92720054	      0.49647393	      9.42814250	      5.37876284	    -16.04168897	     12.29948679	     12.29948679	     11.35325285	     -0.07919847	     -3.51440604	     41.74161071	    -11.86660925	      4.36644051	     59.05748267	     59.05748267	      7.26733032	    -19.04265156	     14.34908946	    -11.44940089	      5.72824409	      5.13835919	     22.94060862	    -14.74893112	     -1.64422163	     48.00967359	     45.37579135	      0.00000000	      0.00000000	     -0.58281482	     -6.80845674	     -1.91996365	     25.17065694	     45.43218573	      0.00000000	      0.00000000
     25.09800000	     -6.50659832	     -6.24855079	      1.74473692	      1.01167778	      0.92725964	      0.49621414	      8.43314794	      5.29431440	    -15.96981604	     11.47290770	     11.47290770	     11.57020748	      0.14070086	     -3.43498564	     42.07509852	    -11.34682362	      4.13343078	     56.22232500	     56.22232500	      8.00938551	    -19.03076500	     15.50887462	    -11.66138622	      5.50223730	      4.34634562	     25.03734263	    -14.36006498	     -1.37428852	     50.68539623	     45.28035805	      0.00000000	      0.00000000	     -2.01607747	     -6.93942482	     -1.80604733	     24.09288776	     45.40623064	      0.00000000	      0.00000000
     25.10914286	     -6.57604990	     -6.10705099	      1.91275905	      1.01139661	      0.92694423	      0.49575898	      7.75826750	      5.18893174	    -15.98230918	     11.05659659	     11.05659659	     11.88787909	      0.30499704	     -3.49879814	     42.37494275	    -10.76024696	      4.16542753	     53.18388847	     53.18388847	      8.59106854	    -18.91362322	     15.98689757	    -11.63264279	      5.37374652	      4.41635786	     26.61971908	    -14.50354937	     -1.14326594	     52.68321952	     45.21019469	      0.00000000	      0.00000000	     -3.13026641	     -7.03988609	     -1.76617592	     23.67093078	     45.39036834	      0.00000000	      0.00000000
     25.12028571	     -6.68642381	     -5.97911097	      2.07710838	      1.01115944	      0.92649600	      0.49514125	      7.15160851	      5.07835389	    -16.01602184	     10.69504080	     10.69504080	     12.20509890	      0.45104443	     -3.56834321	     42.56649449	    -10.11222780	      4.36535521	     49.96211326	     49.96211326	      8.95308911	    -18.66574943	     16.14813198	    -11.54466525	      5.24863542	      4.56263113	     28.19375643	    -14.65486105	     -1.05466252	     54.33738262	     45.15795820	      0.00000000	      0.00000000	     -4.18518725	     -7.13272114	     -1.74860822	     23.40727877	     45.37278405	      0.00000000	      0.00000000
     25.13142857	     -6.76734716	     -5.94747154	      2.26166826	      1.01109869	      0.92592053	      0.49427458	      6.44539973	      5.03522032	    -16.40760001	     10.23725228	     10.23725228	     12.50703465	      1.13955581	     -3.66158459	     42.54595623	     -9.51746752	      4.74514922	     46.54459536	     46.54459536	      8.87569947	    -18.23112783	     14.78877683	    -11.62186679	      5.31367367	      4.69378325	     28.95502281	    -15.40389302	     -0.06014827	     58.83434799	     44.98040957	      0.00000000	      0.00000000	     -5.66047193	     -7.27876604	     -1.57453504	     24.38811834	     45.32787210	      0.00000000	      0.00000000
     25.14257143	     -6.94757254	     -6.05988597	      2.38664798	      1.01104865	      0.92496885	      0.49346898	      6.03034005	      5.14314533	    -16.41598006	     10.11951843	     10.11951843	     12.85328035	      1.13985085	     -3.79155907	     42.62833055	     -9.07120307	      5.32673855	     43.29777791	     43.29777791	      9.43399663	    -17.28896778	     14.89294910	    -11.35482504	      5.51885161	      5.14387534	     30.53896641	    -15.73947425	     -0.23646274	     59.63102031	     44.96871788	      0.00000000	      0.00000000	     -6.51175492	     -7.32212028	     -1.56548169	     24.11541083	     45.31247519	      0.00000000	      0.00000000
     25.15371429	     -6.82548143	     -5.81665043	      2.52981336	      1.01155287	      0.92464401	      0.49230650	      4.92814751	      4.90373716	    -16.74357418	      9.42999699	      9.42999699	     13.21586413	      2.02699858	     -3.68915612	     41.91244741	     -8.39586401	      5.57804705	     39.59009648	     39.59009648	      8.99873878	    -16.38626756	     12.73024930	    -11.63558573	      5.32011306	      4.88780491	     31.49537719	    -15.82315214	      0.28189330	     63.98495182	     44.83367853	      0.00000000	      0.00000000	     -8.19686463	     -7.57774216	     -1.01811962	     25.38804072	     45.20002382	      0.00000000	      0.00000000
     25.16485714	     -6.82769331	     -5.79140627	      2.63200754	      1.01210626	      0.92383771	      0.49126087	      4.11988297	      4.89871654	    -16.78459049	      9.02255350	      9.02255350	     13.55543721	      2.27024140	     -3.71651365	     41.44897508	     -7.99217361	      5.89938780	     36.32935506	     36.32935506	      9.42392335	    -14.91602134	     12.65872399	    -11.59581870	      5.37127542	      4.82546312	     33.06003406	    -15.62896387	      0.20064127	     65.54552163	     44.79875456	      0.00000000	      0.00000000	     -9.26668808	     -7.62257682	     -0.81653765	     25.21982911	     45.15381986	      0.00000000	      0.00000000
     25.17600000	     -6.88334553	     -5.77910789	      2.68848741	      1.01283513	      0.92281663	      0.49014792	      3.40007919	      4.88383680	    -16.82075982	      8.70457498	      8.70457498	     13.90258634	      2.52170238	     -3.77425432	     40.96369140	     -7.68142939	      6.07339331	     33.26303994	     33.26303994	      9.78118487	    -13.39149492	     12.77850901	    -11.44097142	      5.41172188	      4.93008967	     34.50316865	    -15.57632325	      0.14187896	     66.95269108	     44.76438899	      0.00000000	      0.00000000	    -10.22202614	     -7.62322179	     -0.72711459	     25.19008697	     45.12390402	      0.00000000	      0.00000000
     25.18714286	     -6.78622388	     -5.90759913	      2.75836346	      1.01400348	      0.92175457	      0.48897018	      2.35273206	      5.03637356	    -17.18111135	      8.13561223	      8.13561223	     14.31583529	      3.47097770	     -3.59856831	     40.35410768	     -7.59972104	      6.02289561	     30.61717668	     30.61717668	     10.03269223	    -11.80680279	     12.60637774	    -11.53442092	      5.67392495	      4.82490803	     35.43134479	    -15.51965301	      0.38965879	     70.31042326	     44.66711630	      0.00000000	      0.00000000	    -11.74483018	     -7.73310574	     -0.39978114	     26.24739019	     45.04890452	      0.00000000	      0.00000000
     25.19828571	     -6.75573007	     -5.88038293	      2.72081350	      1.01529594	      0.92055991	      0.48777818	      1.56177932	      4.98015024	    -17.12453152	      7.94967595	      7.94967595	     14.75147705	      3.68982840	     -3.62701486	     39.66673789	     -7.42317496	      5.73601839	     28.17107390	     28.17107390	     10.09799327	    -10.70028278	     12.94261361	    -11.39821621	      5.70735957	      4.97295921	     36.63013775	    -15.39903259	      0.35924265	     71.69581397	     44.63404317	      0.00000000	      0.00000000	    -12.67965831	     -7.75363434	     -0.26485386	     26.27832072	     45.01504008	      0.00000000	      0.00000000
